Drive Angry 3D (2011)(DivX)(TS2DivX)(NLSubs) TBS

*****Momenteel te zien in 53 bioscopen*****
********Now in the Cinema********

Verenigde Staten
Actie / Thriller
104 minuten

geregisseerd door Patrick Lussier
met Nicolas Cage, Amber Heard en William Fichtner

Wanneer de dochter van Milton (Nicolas Cage) vermoord wordt wil hij maar één ding; wraak. 
Hij krijgt drie dagen de tijd om de moordenaars te vinden, omdat deze ook nog 
eens zijn kleindochter ontvoerd hebben en ze van plan zijn om haar onder een volle 
maan te offeren. Hij wordt tijdens zijn wraakmissie vergezeld door Piper (Amber Heard), 
een jonge en sexy serveerster. In Pipers 'turbo-charged Black '69 Charger' beginnen 
ze een race tegen de klok...

StoryLine

A vengeful father escapes from hell and chases after the men who killed 
his daughter and kidnapped his granddaughter. 
When the daughter of Milton (Nicolas Cage) is murdered, he wants only one thing: revenge. 
He gets three days time to find the killers, because it also 
once kidnapped his granddaughter, and they plan to her under a full 
Mon sacrifice. He was accompanied during his revenge mission by Piper (Amber Heard), 
a young and sexy waitress. In Piper's "turbo-charged Black '69 Charger 'start 
they race against the clock ...

**********************************
Dit is natuurlijk wel de 2d versie
**********************************

  
http://www.imdb.com/title/tt1502404 
http://www.moviemeter.nl/film/64422

Bron.......: Drive Angry 2011 TS Xvid v2-IMAGINE
Size.......: 1.37 GB
Formaat....: DivX
Subs.......: Dutch (Extern)
subs.......: Nederlands (instelbaar)
Cover......: Yes

General
Complete name                    : Drive Angry 2011 TS XViD v2 - IMAGiNE.avi
Format                           : AVI
Format/Info                      : Audio Video Interleave
File size                        : 1.37 GiB
Duration                         : 1h 32mn
Overall bit rate                 : 2 117 Kbps
Writing library                  : VirtualDub build 32706/release

Video
ID                               : 0
Format                           : MPEG-4 Visual
Format profile                   : Advanced Simple@L5
Format settings, BVOP            : Yes
Format settings, QPel            : No
Format settings, GMC             : No warppoints
Format settings, Matrix          : Default (MPEG)
Muxing mode                      : Packed bitstream
Codec ID                         : XVID
Codec ID/Hint                    : XviD
Duration                         : 1h 32mn
Bit rate                         : 1 979 Kbps
Width                            : 720 pixels
Height                           : 480 pixels
Display aspect ratio             : 3:2
Frame rate                       : 25.000 fps
Standard                         : NTSC
Color space                      : YUV
Chroma subsampling               : 4:2:0
Bit depth                        : 8 bits
Scan type                        : Progressive
Bits/(Pixel*Frame)               : 0.229
Stream size                      : 1.28 GiB (93%)
Writing library                  : XviD 61

Audio
ID                               : 1
Format                           : MPEG Audio
Format version                   : Version 1
Format profile                   : Layer 3
Codec ID                         : 55
Codec ID/Hint                    : MP3
Duration                         : 1h 32mn
Bit rate mode                    : Constant
Bit rate                         : 128 Kbps
Channel(s)                       : 2 channels
Sampling rate                    : 44.1 KHz
Stream size                      : 84.9 MiB (6%)
Alignment                        : Split accross interleaves
Interleave, duration             : 40 ms (1.00 video frame)
Interleave, preload duration     : 500 ms